<svg width="1920" height="863" viewBox="0 0 1920 863" fill="none" xmlns="http://www.w3.org/2000/svg">
<path fill-rule="evenodd" clip-rule="evenodd" d="M1548.8 206.462V58.8807L1606.78 0.902344H1871.64V369.856H1795.21V257.852H1656.19L1602.17 369.856H1518.49L1587.01 244.675L1548.8 206.462ZM1625.23 194.603H1795.21V65.4692H1625.23V194.603Z" fill="white"/>
<path d="M330.905 793.856H406.672V424.902H318.387L126.663 708.865V424.902H50.8955V793.856H139.181L330.905 511.211V793.856Z" fill="white"/>
<path d="M480.689 793.856V424.902H740.274V493.422H557.115V793.856H480.689Z" fill="white"/>
<path fill-rule="evenodd" clip-rule="evenodd" d="M790.167 424.902V863.094H866.593V793.856H1061.61L1128.81 726.653V492.104L1061.61 424.902H790.167ZM866.593 490.787H1052.39V727.971H866.593V490.787Z" fill="white"/>
<path fill-rule="evenodd" clip-rule="evenodd" d="M1192.14 583.025V727.971L1258.02 793.856H1520.24V490.787L1454.36 424.902H1205.32V490.787H1443.82V576.437L1192.14 583.025ZM1268.57 729.289V638.368L1443.82 625.191V729.289H1268.57Z" fill="white"/>
<path fill-rule="evenodd" clip-rule="evenodd" d="M1147.16 65.4692V305.289L1211.73 369.856H1412.02L1476.59 305.289V65.4692L1412.02 0.902344H1211.73L1147.16 65.4692ZM1400.16 305.289H1223.59V65.4692H1400.16V305.289Z" fill="white"/>
<path fill-rule="evenodd" clip-rule="evenodd" d="M753.989 0.902344H1022.8L1076.82 54.9277V148.484L1039.27 176.814L1090 217.004V315.831L1035.97 369.856H753.989V0.902344ZM829.756 152.437H1001.71V62.8338H829.756V152.437ZM829.756 307.924H1013.57V211.733H829.756V307.924Z" fill="white"/>
<path d="M389.233 65.4692V305.289L453.8 369.856H693.62V301.336H465.659V69.4223H693.62V0.902344H453.8L389.233 65.4692Z" fill="white"/>
</svg>
