<svg width="1822" height="863" viewBox="0 0 1822 863" fill="none" xmlns="http://www.w3.org/2000/svg">
<path fill-rule="evenodd" clip-rule="evenodd" d="M1498.8 206.462V58.8807L1556.78 0.902344H1821.64V369.856H1745.21V257.852H1606.19L1552.17 369.856H1468.49L1537.01 244.675L1498.8 206.462ZM1575.23 194.603H1745.21V65.4692H1575.23V194.603Z" fill="white"/>
<path d="M280.905 793.856H356.672V424.902H268.387L76.6628 708.865V424.902H0.895508V793.856H89.1808L280.905 511.211V793.856Z" fill="white"/>
<path d="M430.689 793.856V424.902H690.274V493.422H507.115V793.856H430.689Z" fill="white"/>
<path fill-rule="evenodd" clip-rule="evenodd" d="M740.167 424.902V863.094H816.593V793.856H1011.61L1078.81 726.653V492.104L1011.61 424.902H740.167ZM816.593 490.787H1002.39V727.971H816.593V490.787Z" fill="white"/>
<path fill-rule="evenodd" clip-rule="evenodd" d="M1142.14 583.025V727.971L1208.02 793.856H1470.24V490.787L1404.36 424.902H1155.32V490.787H1393.82V576.437L1142.14 583.025ZM1218.57 729.289V638.368L1393.82 625.191V729.289H1218.57Z" fill="white"/>
<path fill-rule="evenodd" clip-rule="evenodd" d="M1097.16 65.4692V305.289L1161.73 369.856H1362.02L1426.59 305.289V65.4692L1362.02 0.902344H1161.73L1097.16 65.4692ZM1350.16 305.289H1173.59V65.4692H1350.16V305.289Z" fill="white"/>
<path fill-rule="evenodd" clip-rule="evenodd" d="M703.989 0.902344H972.798L1026.82 54.9277V148.484L989.269 176.814L1040 217.004V315.831L985.975 369.856H703.989V0.902344ZM779.756 152.437H951.715V62.8338H779.756V152.437ZM779.756 307.924H963.574V211.733H779.756V307.924Z" fill="white"/>
<path d="M339.233 65.4692V305.289L403.8 369.856H643.62V301.336H415.659V69.4223H643.62V0.902344H403.8L339.233 65.4692Z" fill="white"/>
</svg>
