<svg width="652" height="159" viewBox="0 0 652 159" fill="none" xmlns="http://www.w3.org/2000/svg">
<g clip-path="url(#clip0_2263_343)">
<g clip-path="url(#clip1_2263_343)">
<path d="M0.480961 75.9022C0.480959 40.2116 0.480958 22.2869 11.619 11.1831C22.9172 0.158691 40.9464 0.158689 77.0848 0.158687L83.4951 0.158687C119.553 0.158685 137.663 0.158685 148.881 11.1831C160.019 22.2076 160.019 40.2115 160.019 75.9022L160.019 82.2472C160.019 117.938 160.019 135.863 148.881 146.966C137.743 157.991 119.553 157.991 83.4951 157.991L77.0848 157.991C41.0265 157.991 22.9172 157.991 11.6991 146.966C0.480965 135.863 0.480964 118.017 0.480962 82.2472L0.480961 75.9022Z" fill="black"/>
<path d="M80.2099 78.6779C87.9825 78.6779 95.0339 75.5054 100.082 70.5087C105.13 65.512 108.335 58.5325 108.335 50.8392C108.335 43.1459 105.13 36.1664 100.082 31.1697C95.0339 26.173 87.9825 23.0005 80.2099 23.0005C72.4374 23.0005 65.386 26.173 60.3378 31.1697C55.2897 36.0871 52.0845 43.0666 52.0845 50.8392C52.0845 58.6118 55.2897 65.512 60.3378 70.5087C65.386 75.5054 72.5175 78.6779 80.2099 78.6779ZM71.2354 41.7976C73.5592 39.4975 76.7644 38.0699 80.2901 38.0699C83.8959 38.0699 87.0209 39.4975 89.3447 41.7976C91.6684 44.0976 93.1108 47.2701 93.1108 50.7599C93.1108 54.329 91.6684 57.4222 89.3447 59.7222C87.0209 62.0223 83.8158 63.4499 80.2901 63.4499C76.6842 63.4499 73.5592 62.0223 71.2354 59.7222C68.9117 57.4222 67.4693 54.2496 67.4693 50.7599C67.4693 47.2701 68.9918 44.0976 71.2354 41.7976Z" fill="white"/>
<path d="M118.191 89.9405L109.938 78.7574C109.457 78.1229 108.495 78.0436 107.934 78.5988C100.162 85.1818 90.5463 89.4646 80.2096 89.4646C69.8729 89.4646 60.3375 85.1818 52.4848 78.5988C51.9239 78.1229 50.9623 78.2022 50.4815 78.7574L42.2282 89.9405C41.8276 90.4957 41.9077 91.2095 42.3885 91.6854C49.3597 97.2373 57.4528 101.044 65.8664 103.027L48.3982 133.483C47.9174 134.356 48.5584 135.466 49.52 135.466L66.5876 135.466C67.1485 135.466 67.6293 135.149 67.7895 134.594L79.9692 107.627L92.1489 134.594C92.3092 135.069 92.7899 135.466 93.3508 135.466L110.418 135.466C111.46 135.466 112.021 134.435 111.54 133.483L94.072 103.027C102.486 101.044 110.579 97.3959 117.55 91.6854C118.592 91.2095 118.672 90.4957 118.191 89.9405Z" fill="white"/>
</g>
<path fill-rule="evenodd" clip-rule="evenodd" d="M227.906 54.9458C241.962 54.9458 251.587 64.9644 251.587 79.1006C251.587 92.9558 241.864 103.072 227.906 103.072C213.762 103.072 204.138 93.3341 204.138 79.1006C204.138 64.8671 213.85 54.9458 227.906 54.9458ZM187.621 79.1006C187.621 101.667 205.553 118.332 227.906 118.332C250.074 118.332 268.093 101.58 268.093 79.1006C268.093 56.621 250.172 39.6748 227.906 39.6748C205.64 39.6748 187.621 56.5345 187.621 79.1006ZM278.001 40.7988C276.684 40.7988 276.019 41.5445 276.019 42.7657L276.019 115.446C276.019 116.754 276.771 117.413 278.001 117.413L290.457 117.413C291.774 117.413 292.438 116.667 292.438 115.446L292.438 83.9856L322.249 116.386C322.311 116.433 322.369 116.479 322.426 116.522L322.429 116.525C323.159 117.088 323.58 117.413 324.982 117.413L342.719 117.413C343.949 117.413 344.036 116.192 343.285 115.349L306.495 77.8901L341.401 42.8738C342.153 42.0308 342.065 40.8096 340.835 40.8096L322.914 40.8096C321.781 40.8096 321.019 41.0906 320.268 41.9336L292.438 72.454L292.438 42.7657C292.438 41.458 291.687 40.7988 290.457 40.7988L278.001 40.7988ZM354.565 116.062C356.362 117.888 358.594 118.796 361.261 118.796C363.853 118.796 366.063 117.888 367.903 116.062C369.743 114.235 370.658 111.933 370.658 109.361C370.658 106.789 369.743 104.606 367.903 102.823C366.063 101.039 363.929 100.142 361.261 100.142C358.594 100.142 356.362 101.039 354.565 102.823C352.769 104.617 351.865 106.713 351.865 109.361C351.865 112.009 352.769 114.235 354.565 116.062ZM374.292 53.6595L374.292 42.906C374.292 41.9658 375.054 41.2092 376.001 41.2092L437.431 41.2092C438.378 41.2092 439.14 41.9658 439.14 42.906L439.14 53.6595C439.14 54.5997 438.378 55.3563 437.431 55.3563L414.61 55.3563L414.61 116.267C414.61 117.208 413.848 117.964 412.9 117.964L400.412 117.964C399.465 117.964 398.702 117.208 398.702 116.267L398.702 55.3563L376.001 55.3563C375.054 55.3563 374.292 54.5997 374.292 53.6595ZM451.292 117.964L505.568 117.964L505.568 117.975C506.591 117.975 507.43 117.143 507.43 116.127L507.43 105.676C507.43 104.66 506.591 103.828 505.568 103.828L465.337 103.828L465.337 84.0935L496.4 84.0935C497.424 84.0935 498.262 83.2613 498.262 82.2454L498.262 72.0107C498.262 70.9948 497.424 70.1626 496.4 70.1626L465.337 70.1626L465.337 55.3563L504.348 55.3563C505.372 55.3563 506.21 54.5241 506.21 53.5082L506.21 43.0574C506.21 42.0415 505.372 41.2093 504.348 41.2093L451.292 41.2093C450.268 41.2093 449.43 42.0415 449.43 43.0574L449.43 116.116C449.43 117.132 450.268 117.964 451.292 117.964ZM553.28 119.509C541.27 119.509 531.297 115.781 523.338 108.324C515.39 100.726 511.405 91.1504 511.405 79.5972C511.405 68.044 515.346 58.328 523.229 50.8708C531.188 43.4136 541.194 39.6851 553.28 39.6851C560.4 39.6851 566.9 41.1333 572.769 44.0297C573.357 44.3215 573.716 44.9159 573.716 45.5643L573.716 58.9656C573.716 59.5925 573.03 59.9599 572.486 59.6357C566.824 56.2097 560.455 54.4913 553.389 54.4913C546.322 54.4913 539.942 56.869 534.944 61.6135C530.088 66.2931 527.65 72.2913 527.65 79.5972C527.65 86.9031 530.154 92.9336 535.162 97.6889C540.094 102.369 546.388 104.703 554.053 104.703C561.718 104.703 568.566 102.779 574.01 98.9426C574.533 98.5752 575.262 98.9534 575.262 99.5911L575.262 112.917C575.262 113.533 574.936 114.106 574.391 114.408C568.327 117.802 561.282 119.498 553.28 119.498L553.28 119.509ZM587.062 117.964L599.616 117.964C600.541 117.964 601.292 117.218 601.292 116.3L601.292 84.2988L636.199 84.2988L636.199 116.3C636.199 117.218 636.95 117.964 637.876 117.964L650.321 117.964C651.246 117.964 651.997 117.218 651.997 116.3L651.997 42.8736C651.997 41.955 651.246 41.2092 650.321 41.2092L637.876 41.2092C636.95 41.2092 636.199 41.955 636.199 42.8736L636.199 69.9356L601.292 69.9356L601.292 42.8736C601.292 41.955 600.541 41.2092 599.616 41.2092L587.062 41.2092C586.136 41.2092 585.385 41.955 585.385 42.8736L585.385 116.3C585.385 117.218 586.136 117.964 587.062 117.964Z" fill="black"/>
</g>
<defs>
<clipPath id="clip0_2263_343">
<rect width="652" height="159" fill="white"/>
</clipPath>
<clipPath id="clip1_2263_343">
<rect width="160.259" height="158.625" fill="white"/>
</clipPath>
</defs>
</svg>
