<svg width="62" height="62" viewBox="0 0 62 62" fill="none" xmlns="http://www.w3.org/2000/svg">
<g id="Icon" clip-path="url(#clip0_2263_236)">
<path id="Vector" d="M0 29.7578C0 15.7346 0 8.72306 4.36153 4.36153C8.72306 0 15.7346 0 29.7578 0H32.2422C46.2654 0 53.2769 0 57.6385 4.36153C62 8.72306 62 15.7346 62 29.7578V32.2422C62 46.2654 62 53.2769 57.6385 57.6385C53.2769 62 46.2654 62 32.2422 62H29.7578C15.7346 62 8.72306 62 4.36153 57.6385C0 53.2769 0 46.2654 0 32.2422V29.7578Z" fill="black"/>
<path id="Vector_2" d="M31.0001 30.8346C34.0366 30.8346 36.7694 29.62 38.757 27.6324C40.7445 25.6449 41.9591 22.8844 41.9591 19.8755C41.9591 16.839 40.7445 14.1062 38.757 12.1186C36.7694 10.1311 34.0366 8.9165 31.0001 8.9165C27.9635 8.9165 25.2307 10.1311 23.2432 12.1186C21.2556 14.1062 20.041 16.839 20.041 19.8755C20.041 22.9121 21.2556 25.6449 23.2432 27.6324C25.2307 29.5924 27.9635 30.8346 31.0001 30.8346ZM27.4943 16.3421C28.4052 15.4312 29.6474 14.8791 31.0001 14.8791C32.3803 14.8791 33.6225 15.4312 34.5058 16.3421C35.4168 17.2531 35.9689 18.4953 35.9689 19.8479C35.9689 21.2006 35.4168 22.4704 34.5058 23.3537C33.5949 24.2647 32.3527 24.8168 31.0001 24.8168C29.6198 24.8168 28.3776 24.2647 27.4943 23.3537C26.5833 22.4428 26.0312 21.2006 26.0312 19.8479C26.0312 18.4953 26.5833 17.2531 27.4943 16.3421Z" fill="white"/>
<path id="Vector_3" d="M45.7407 35.2511L42.511 30.862C42.3177 30.6135 41.9865 30.5859 41.7381 30.7792C38.7015 33.374 34.9749 35.0303 30.9722 35.0303C26.9696 35.0303 23.2429 33.3464 20.2064 30.7792C19.9856 30.5859 19.6267 30.6135 19.4335 30.862L16.2314 35.2511C16.0657 35.4719 16.121 35.7756 16.3142 35.9412C19.0194 38.1496 22.1664 39.6126 25.4513 40.3856L18.6606 52.3384C18.495 52.6696 18.7434 53.0837 19.1299 53.0837H25.7826C25.9758 53.0837 26.169 52.9733 26.2519 52.78L30.9999 42.1799L35.7478 52.78C35.8307 52.9733 36.0239 53.0837 36.2171 53.0837H42.8698C43.2563 53.0837 43.5047 52.6696 43.3115 52.3384L36.5208 40.3856C39.8057 39.6126 42.9251 38.1496 45.6303 35.9412C45.8511 35.7756 45.8787 35.4719 45.7407 35.2511Z" fill="white"/>
</g>
<defs>
<clipPath id="clip0_2263_236">
<rect width="62" height="62" fill="white"/>
</clipPath>
</defs>
</svg>
